<svg width="104" height="17" viewBox="0 0 104 17" fill="none" xmlns="http://www.w3.org/2000/svg">
<path d="M12.848 0.599999H15.928L14.52 3.35L8.074 16L1.628 3.35L0.22 0.599999H3.3L4.708 3.35L8.074 9.95L11.44 3.35L12.848 0.599999ZM22.6927 13.25L24.1007 16H21.0207L19.6127 13.25L16.2467 6.65L12.8807 13.25L11.4727 16H8.39266L9.80066 13.25L16.2467 0.599999L22.6927 13.25ZM27.6753 3.35C24.9473 3.35 22.7253 5.572 22.7253 8.3C22.7253 11.028 24.9473 13.25 27.6753 13.25H35.3753V16H27.6753C23.4293 16 19.9753 12.546 19.9753 8.3C19.9753 4.054 23.4293 0.599999 27.6753 0.599999H35.3753V3.35H27.6753ZM47.6962 13.25L49.1042 16H46.0242L44.6162 13.25L41.2502 6.65L37.8842 13.25L36.4762 16H33.3962L34.8042 13.25L41.2502 0.599999L47.6962 13.25ZM59.7824 0.599999L62.5324 0.621999V16.022L59.7824 13.91L49.8824 6.276V16.022H47.1324V0.665999L49.8824 2.778L59.7824 10.412V0.599999ZM61.4281 0.621999H76.8061V3.372H70.4921V16.022H67.7421V3.372H61.4281V0.621999ZM79.8818 3.35C79.1118 3.35 78.4738 3.988 78.4738 4.758V6.188H88.3738V8.938H78.4738V11.842C78.4738 12.612 79.1118 13.25 79.8818 13.25H91.1238V16H79.8818C77.5938 16 75.7458 14.13 75.7458 11.842V4.758C75.7458 2.47 77.5938 0.599999 79.8818 0.599999H91.1238V3.35H79.8818ZM100.25 8.894L102.45 13.294L103.858 16.044H100.778L99.3695 13.294L97.8955 10.412L97.8295 10.28C97.3455 9.488 96.4875 8.96 95.4975 8.96H92.7475V16.044H89.9975V0.644H99.7215C100.866 0.644 101.9 1.106 102.648 1.854C103.396 2.602 103.858 3.636 103.858 4.78C103.858 6.452 102.868 7.904 101.438 8.564C101.064 8.74 100.668 8.85 100.25 8.894ZM92.7475 6.232L99.7215 6.21C99.9195 6.21 100.118 6.166 100.294 6.078C100.8 5.858 101.13 5.352 101.13 4.802C101.13 4.296 100.866 3.944 100.712 3.79C100.536 3.614 100.206 3.394 99.7215 3.394H92.7475V6.232Z" fill="#04ADE6"/>
</svg>
