<svg width="120" height="17" viewBox="0 0 120 17" fill="none" xmlns="http://www.w3.org/2000/svg">
<path d="M12.848 0.599999H15.928L14.52 3.35L8.074 16L1.628 3.35L0.22 0.599999H3.3L4.708 3.35L8.074 9.95L11.44 3.35L12.848 0.599999ZM24.8927 13.25L26.3007 16H23.2207L21.8127 13.25L18.4467 6.65L15.0807 13.25L13.6727 16H10.5927L12.0007 13.25L18.4467 0.599999L24.8927 13.25ZM32.0753 3.35C29.3473 3.35 27.1253 5.572 27.1253 8.3C27.1253 11.028 29.3473 13.25 32.0753 13.25H39.7753V16H32.0753C27.8293 16 24.3753 12.546 24.3753 8.3C24.3753 4.054 27.8293 0.599999 32.0753 0.599999H39.7753V3.35H32.0753ZM54.2962 13.25L55.7042 16H52.6242L51.2162 13.25L47.8502 6.65L44.4842 13.25L43.0762 16H39.9962L41.4042 13.25L47.8502 0.599999L54.2962 13.25ZM68.5824 0.599999L71.3324 0.621999V16.022L68.5824 13.91L58.6824 6.276V16.022H55.9324V0.665999L58.6824 2.778L68.5824 10.412V0.599999ZM72.4281 0.621999H87.8061V3.372H81.4921V16.022H78.7421V3.372H72.4281V0.621999ZM93.0818 3.35C92.3118 3.35 91.6738 3.988 91.6738 4.758V6.188H101.574V8.938H91.6738V11.842C91.6738 12.612 92.3118 13.25 93.0818 13.25H104.324V16H93.0818C90.7938 16 88.9458 14.13 88.9458 11.842V4.758C88.9458 2.47 90.7938 0.599999 93.0818 0.599999H104.324V3.35H93.0818ZM115.65 8.894L117.85 13.294L119.258 16.044H116.178L114.77 13.294L113.296 10.412L113.23 10.28C112.746 9.488 111.888 8.96 110.898 8.96H108.148V16.044H105.398V0.644H115.122C116.266 0.644 117.3 1.106 118.048 1.854C118.796 2.602 119.258 3.636 119.258 4.78C119.258 6.452 118.268 7.904 116.838 8.564C116.464 8.74 116.068 8.85 115.65 8.894ZM108.148 6.232L115.122 6.21C115.32 6.21 115.518 6.166 115.694 6.078C116.2 5.858 116.53 5.352 116.53 4.802C116.53 4.296 116.266 3.944 116.112 3.79C115.936 3.614 115.606 3.394 115.122 3.394H108.148V6.232Z" fill="#04ADE6"/>
</svg>
