<svg width="20" height="25" viewBox="0 0 20 25" fill="none" xmlns="http://www.w3.org/2000/svg">
<path d="M10 0.5C4.93398 0.5 0.8125 4.62148 0.8125 9.6875C0.8125 11.3091 1.24094 12.9034 2.05145 14.2979C2.24041 14.623 2.45162 14.9398 2.67934 15.2396L9.60081 24.5H10.3991L17.3207 15.2397C17.5483 14.9398 17.7595 14.6231 17.9485 14.2979C18.7591 12.9034 19.1875 11.3091 19.1875 9.6875C19.1875 4.62148 15.066 0.5 10 0.5ZM10 12.7344C8.31995 12.7344 6.95312 11.3675 6.95312 9.6875C6.95312 8.00745 8.31995 6.64062 10 6.64062C11.68 6.64062 13.0469 8.00745 13.0469 9.6875C13.0469 11.3675 11.68 12.7344 10 12.7344Z" fill="#5E6368"/>
</svg>
